<svg height="512pt" viewBox="0 -40 512.00018 512" width="512pt" xmlns="http://www.w3.org/2000/svg"><path d="m41.363281 226.394531c-43.492187-43.515625-42.714843-125.566406 8.375-176.65625 51.089844-51.089843 133.144531-51.871093 176.65625-8.378906 13.238281 13.242187 21.15625 29.78125 23.765625 46.972656 2.277344 15.011719-11.316406 27.691407-26.152344 24.453125-19.933593-4.347656-42.199218-1.6875-61.902343 8.390625l73.457031 50c16.675781 11.351563 18.90625 35.066407 4.644531 49.328125l-19.699219 19.703125c-14.261718 14.261719-37.980468 12.03125-49.332031-4.644531l-50-73.457031c-10.078125 19.703125-12.738281 41.96875-8.386719 61.898437 3.238282 14.839844-9.441406 28.429688-24.457031 26.152344-17.191406-2.605469-33.730469-10.523438-46.96875-23.761719zm0 0" fill="#ffedd1"/><path d="m502 309.351562c-.011719 58.242188-55.464844 112.648438-123.863281 112.648438-68.402344 0-123.851563-54.40625-123.863281-112.648438 0-17.726562 5.769531-34.101562 15.53125-47.351562 8.527343-11.574219 26.113281-10.964844 33.878906 1.132812 10.429687 16.257813 27.117187 29.382813 47.054687 35.824219l-15.703125-82.644531c-3.566406-18.761719 10.816406-36.132812 29.910156-36.132812h26.378907c19.09375 0 33.476562 17.371093 29.914062 36.132812l-15.703125 82.644531c19.933594-6.441406 36.621094-19.566406 47.054688-35.824219 7.761718-12.097656 25.347656-12.710937 33.875-1.132812 9.765625 13.253906 15.535156 29.625 15.535156 47.351562zm0 0" fill="#ffe6c0"/><path d="m91.5625 260.402344c-1.570312 0-3.152344-.117188-4.730469-.355469-20.019531-3.039063-38.1875-12.226563-52.539062-26.582031h-.003907c-23.011718-23.023438-35.476562-56.886719-34.1992182-92.910156 1.3085942-36.976563 16.4296872-71.738282 42.5781252-97.886719 26.148437-26.148438 60.914062-41.269531 97.886719-42.5781252 36.023437-1.2695318 69.890624 11.1875002 92.910156 34.1992182 14.355468 14.355469 23.546875 32.523438 26.582031 52.542969 1.558594 10.289063-2.058594 20.695313-9.679687 27.839844-7.636719 7.164063-18.289063 10.109375-28.492188 7.882813-12.367188-2.695313-25.710938-2.257813-38.371094 1.089843l57.6875 39.265625c10.417969 7.089844 17.070313 18.351563 18.253906 30.902344 1.179688 12.546875-3.253906 24.851562-12.164062 33.765625l-19.703125 19.699219c-8.910156 8.914062-21.207031 13.351562-33.765625 12.164062-12.546875-1.179687-23.8125-7.832031-30.902344-18.25l-39.300781-57.742187c-3.394531 12.636719-3.796875 25.839843-1.050781 38.425781 2.226562 10.203125-.722656 20.855469-7.886719 28.492188-6.046875 6.453124-14.4375 10.035156-23.109375 10.035156zm-43.128906-41.078125c11.3125 11.3125 25.628906 18.554687 41.398437 20.945312 3.835938.582031 7.570313-.722656 10.25-3.582031 2.699219-2.878906 3.769531-6.722656 2.933594-10.550781-4.976563-22.824219-1.691406-47.179688 9.257813-68.585938 1.609374-3.144531 4.753906-5.207031 8.277343-5.425781 3.539063-.230469 6.90625 1.433594 8.894531 4.351562l50 73.460938c3.726563 5.472656 9.644532 8.972656 16.242188 9.59375 6.601562.617188 13.0625-1.710938 17.75-6.394531l19.699219-19.703125c4.6875-4.683594 7.015625-11.152344 6.394531-17.75-.621094-6.59375-4.117188-12.515625-9.59375-16.242188l-73.457031-50c-2.921875-1.988281-4.574219-5.367187-4.355469-8.890625.21875-3.523437 2.285156-6.671875 5.425781-8.277343 21.40625-10.949219 45.765625-14.234376 68.589844-9.257813 3.824219.832031 7.667969-.234375 10.550781-2.933594 2.855469-2.679687 4.164063-6.417969 3.582032-10.253906-2.394532-15.769531-9.636719-30.082031-20.949219-41.394531-41.0625-41.042969-117.003907-37.132813-162.511719 8.375-45.511719 45.507812-49.421875 121.449218-8.378906 162.515625zm0 0"/><path d="m378.136719 432c-35.144531 0-68.667969-13.199219-94.394531-37.167969-25.078126-23.363281-39.464844-54.519531-39.46875-85.480469 0-19.332031 6.042968-37.757812 17.480468-53.28125 5.945313-8.074218 15.511719-12.710937 25.5625-12.375 10.082032.324219 19.347656 5.570313 24.78125 14.039063 6.222656 9.695313 15.011719 18.046875 25.222656 24.1875l-12.109374-63.742187c-2.257813-11.878907.871093-24.03125 8.578124-33.34375 7.710938-9.3125 19.066407-14.65625 31.15625-14.65625h26.378907c12.089843 0 23.445312 5.34375 31.15625 14.65625 7.710937 9.3125 10.835937 21.464843 8.582031 33.34375l-12.113281 63.742187c10.214843-6.140625 19-14.488281 25.222656-24.1875 5.4375-8.464844 14.703125-13.714844 24.785156-14.039063 10.085938-.324218 19.613281 4.300782 25.5625 12.375 11.4375 15.523438 17.480469 33.949219 17.480469 53.28125v.003907c-.007812 30.960937-14.394531 62.117187-39.472656 85.476562-25.722656 23.96875-59.246094 37.167969-94.390625 37.167969zm-91.828125-168.324219c-3.386719 0-6.449219 1.539063-8.453125 4.253907-8.886719 12.0625-13.582031 26.386718-13.582031 41.417968.011718 54.683594 53.21875 102.648438 113.863281 102.648438s113.851562-47.964844 113.863281-102.648438c0-15.03125-4.699219-29.355468-13.585938-41.417968-2.070312-2.8125-5.300781-4.371094-8.8125-4.25-3.558593.117187-6.691406 1.886718-8.597656 4.855468-12.011718 18.714844-30.617187 32.898438-52.394531 39.9375-3.359375 1.085938-7.042969.316406-9.691406-2.019531-2.644531-2.335937-3.867188-5.894531-3.207031-9.363281l15.703124-82.644532c1.140626-6.003906-.441406-12.148437-4.339843-16.855468-3.898438-4.710938-9.636719-7.410156-15.75-7.410156h-26.378907c-6.109374 0-11.851562 2.699218-15.75 7.410156-3.894531 4.707031-5.476562 10.851562-4.335937 16.855468l15.703125 82.644532c.65625 3.46875-.5625 7.03125-3.210938 9.367187-2.644531 2.332031-6.332031 3.101563-9.691406 2.015625-21.773437-7.039062-40.382812-21.222656-52.394531-39.9375-1.90625-2.96875-5.039063-4.738281-8.59375-4.851562-.121094-.003906-.242187-.007813-.363281-.007813zm0 0"/><path d="m198.117188 79.652344c-2.5625 0-5.117188-.976563-7.070313-2.929688-17.003906-16.996094-48.207031-21.550781-75.882813-11.078125-5.167968 1.953125-10.9375-.648437-12.890624-5.816406-1.957032-5.164063.648437-10.9375 5.8125-12.890625 34.789062-13.164062 74.71875-6.730469 97.097656 15.640625 3.90625 3.90625 3.90625 10.238281.003906 14.144531-1.949219 1.953125-4.511719 2.929688-7.070312 2.929688zm0 0"/><path d="m78.019531 88.019531c-2.628906 0-5.210937-1.0625-7.070312-2.921875-1.859375-1.871094-2.929688-4.4375-2.929688-7.078125 0-2.632812 1.070313-5.210937 2.929688-7.070312s4.441406-2.929688 7.070312-2.929688c2.640625 0 5.210938 1.070313 7.078125 2.929688 1.863282 1.867187 2.921875 4.4375 2.921875 7.070312 0 2.628907-1.058593 5.207031-2.921875 7.078125-1.867187 1.859375-4.4375 2.921875-7.078125 2.921875zm0 0"/></svg>